<svg width="24" height="11" viewBox="0 0 24 11" fill="none" xmlns="http://www.w3.org/2000/svg">
<path opacity="0.35" d="M18.3333 0H2.66667C1.19391 0 0 1.19391 0 2.66667V7.66667C0 9.13943 1.19391 10.3333 2.66667 10.3333H18.3333C19.8061 10.3333 21 9.13943 21 7.66667V2.66667C21 1.19391 19.8061 0 18.3333 0Z" stroke="white"/>
<path opacity="0.4" d="M22.5 3.16699V7.16699C23.3047 6.82822 23.828 6.04013 23.828 5.16699C23.828 4.29386 23.3047 3.50577 22.5 3.16699Z" fill="white"/>
<path d="M18.1667 1.5H2.83333C2.09695 1.5 1.5 2.09695 1.5 2.83333V7.5C1.5 8.23638 2.09695 8.83333 2.83333 8.83333H18.1667C18.903 8.83333 19.5 8.23638 19.5 7.5V2.83333C19.5 2.09695 18.903 1.5 18.1667 1.5Z" fill="white"/>
</svg>
