<svg width="30" height="30" viewBox="0 0 30 30" fill="none" xmlns="http://www.w3.org/2000/svg">
<path d="M15 0C23.2843 0 30 6.71573 30 15C30 23.2843 23.2843 30 15 30C6.71573 30 0 23.2843 0 15C0 6.71573 6.71573 0 15 0ZM6.5 19.5V19.6123C6.5 20.6686 7.40437 21.5311 8.46289 21.5312H21.8965C22.9546 21.5312 23.79 20.6687 23.79 19.6123V19.5H6.5ZM8.46289 10C7.40491 10.0001 6.5001 10.851 6.5 11.9072V18H23.7891V11.9072C23.789 10.851 22.9545 10 21.8965 10H8.46289ZM11.1953 12.4688C11.9652 12.469 12.5888 13.0917 12.5889 13.8604C12.5889 14.63 11.9652 15.2527 11.1953 15.2529C10.8201 15.2529 10.4799 15.1037 10.2295 14.8633C9.97905 15.1037 9.63887 15.2529 9.26465 15.2529C8.49517 15.2527 7.87109 14.63 7.87109 13.8604C7.87117 13.0917 8.49474 12.4689 9.26465 12.4688C9.63928 12.4688 9.97954 12.6171 10.2295 12.8574C10.4799 12.617 10.8201 12.4688 11.1953 12.4688Z" fill="#DEE5E7"/>
</svg>
