<svg width="333" height="140" viewBox="0 0 333 140" fill="none" xmlns="http://www.w3.org/2000/svg">
<path fill-rule="evenodd" clip-rule="evenodd" d="M0 15C0 6.71573 6.71573 0 15 0H318C326.284 0 333 6.71573 333 15V125C333 133.284 326.284 140 318 140H15C6.71572 140 0 133.284 0 125V15Z" fill="white" stroke="#DEE5E7" stroke-width="0.5"/>
<path d="M166 65.5C162.686 65.5 160 68.1872 160 71.5C160 74.814 162.686 77.5 166 77.5C169.313 77.5 172 74.814 172 71.5C172 68.1872 169.313 65.5 166 65.5ZM182 59.5H177.2C176.54 59.5 175.829 58.988 175.62 58.3616L174.38 54.638C174.17 54.012 173.46 53.5 172.8 53.5H159.2C158.54 53.5 157.829 54.012 157.62 54.6384L156.38 58.362C156.17 58.988 155.46 59.5 154.8 59.5H150C147.8 59.5 146 61.3 146 63.5V81.5C146 83.7 147.8 85.5 150 85.5H182C184.2 85.5 186 83.7 186 81.5V63.5C186 61.3 184.2 59.5 182 59.5ZM166 81.5C160.477 81.5 156 77.0228 156 71.5C156 65.9776 160.477 61.5 166 61.5C171.522 61.5 176 65.9776 176 71.5C176 77.0228 171.522 81.5 166 81.5ZM180.6 66.2972C179.827 66.2972 179.2 65.6708 179.2 64.8972C179.2 64.1244 179.827 63.4972 180.6 63.4972C181.374 63.4972 182 64.1244 182 64.8972C182 65.6708 181.373 66.2972 180.6 66.2972Z" fill="#DEE5E7"/>
</svg>
