<svg width="16" height="11" viewBox="0 0 16 11" fill="none" xmlns="http://www.w3.org/2000/svg">
<path d="M7.6366 2.27733C9.8525 2.27742 11.9837 3.12886 13.5896 4.65566C13.7105 4.77354 13.9039 4.77205 14.023 4.65233L15.179 3.48566C15.2393 3.42494 15.2729 3.34269 15.2724 3.25711C15.2719 3.17153 15.2373 3.08967 15.1763 3.02966C10.9612 -1.00989 4.31139 -1.00989 0.0962899 3.02966C0.0352309 3.08963 0.000569971 3.17146 6.97078e-06 3.25704C-0.000556029 3.34262 0.0330047 3.42489 0.0932687 3.48566L1.24961 4.65233C1.36864 4.77223 1.5621 4.77372 1.68296 4.65566C3.28911 3.12876 5.42049 2.27732 7.6366 2.27733ZM7.6366 6.07299C8.85409 6.07292 10.0281 6.52545 10.9306 7.34266C11.0527 7.45864 11.245 7.45613 11.364 7.33699L12.5186 6.17033C12.5794 6.10913 12.6132 6.02612 12.6123 5.93985C12.6114 5.85359 12.576 5.77127 12.514 5.71133C9.76575 3.15494 5.5098 3.15494 2.7616 5.71133C2.69953 5.77127 2.66412 5.85363 2.66331 5.93992C2.66249 6.02621 2.69634 6.10922 2.75727 6.17033L3.91163 7.33699C4.03062 7.45613 4.22288 7.45864 4.34495 7.34266C5.24682 6.52599 6.41992 6.0735 7.6366 6.07299ZM9.85563 8.85733C9.91738 8.79672 9.95139 8.71332 9.94962 8.62681C9.94785 8.54031 9.91047 8.45836 9.84629 8.40033C8.57072 7.32144 6.70252 7.32144 5.42695 8.40033C5.36273 8.45831 5.32529 8.54023 5.32346 8.62674C5.32163 8.71325 5.35556 8.79668 5.41727 8.85733L7.41495 10.873C7.4735 10.9322 7.55331 10.9656 7.6366 10.9656C7.71989 10.9656 7.79973 10.9322 7.85828 10.873L9.85563 8.85733Z" fill="black"/>
</svg>
