<svg width="30" height="30" viewBox="0 0 30 30" fill="none" xmlns="http://www.w3.org/2000/svg">
<circle cx="12.5" cy="17.5" r="12.5" fill="#3AE012"/>
<path d="M12.5806 30C5.63255 30 0 24.3675 0 17.4194C0 16.4144 0.117842 15.4369 0.340463 14.5" stroke="#D5DDE0" stroke-width="0.5"/>
<g filter="url(#filter0_d_363_4381)">
<path d="M28.1195 0.953031C26.8488 -0.317677 24.7887 -0.317677 23.518 0.953031L10.6183 13.8527C10.5299 13.9411 10.466 14.0507 10.4327 14.171L8.73635 20.2952C8.66658 20.5463 8.73748 20.8152 8.92163 20.9997C9.10606 21.1838 9.37495 21.2547 9.62604 21.1852L15.7502 19.4886C15.8706 19.4553 15.9801 19.3914 16.0686 19.303L28.968 6.40304C30.2367 5.13148 30.2367 3.07304 28.968 1.80149L28.1195 0.953031Z" fill="white"/>
<path d="M28.1195 0.953031C26.8488 -0.317677 24.7887 -0.317677 23.518 0.953031L10.6183 13.8527C10.5299 13.9411 10.466 14.0507 10.4327 14.171L8.73635 20.2952C8.66658 20.5463 8.73748 20.8152 8.92163 20.9997C9.10606 21.1838 9.37495 21.2547 9.62604 21.1852L15.7502 19.4886C15.8706 19.4553 15.9801 19.3914 16.0686 19.303L28.968 6.40304C30.2367 5.13148 30.2367 3.07304 28.968 1.80149L28.1195 0.953031Z" stroke="#002333" stroke-width="2" stroke-linecap="round"/>
</g>
<path d="M11.1289 13.5488L15.9676 18.3875" stroke="#3E4958" stroke-width="2"/>
<path d="M22.2578 2.90332L27.0965 7.74203" stroke="#3E4958" stroke-width="2"/>
<defs>
<filter id="filter0_d_363_4381" x="-7.29004" y="-12" width="53.21" height="53.2119" filterUnits="userSpaceOnUse" color-interpolation-filters="sRGB">
<feFlood flood-opacity="0" result="BackgroundImageFix"/>
<feColorMatrix in="SourceAlpha" type="matrix" values="0 0 0 0 0 0 0 0 0 0 0 0 0 0 0 0 0 0 127 0" result="hardAlpha"/>
<feOffset dy="4"/>
<feGaussianBlur stdDeviation="7.5"/>
<feColorMatrix type="matrix" values="0 0 0 0 0 0 0 0 0 0 0 0 0 0 0 0 0 0 0.15 0"/>
<feBlend mode="normal" in2="BackgroundImageFix" result="effect1_dropShadow_363_4381"/>
<feBlend mode="normal" in="SourceGraphic" in2="effect1_dropShadow_363_4381" result="shape"/>
</filter>
</defs>
</svg>
