<svg width="23" height="40" viewBox="0 0 23 40" fill="none" xmlns="http://www.w3.org/2000/svg">
<path d="M11.3548 38.4615C13.6579 38.4615 15.525 36.5944 15.525 34.2912C15.525 31.9882 13.6579 30.1211 11.3548 30.1211C9.05162 30.1211 7.18457 31.9882 7.18457 34.2912C7.18457 36.5944 9.05162 38.4615 11.3548 38.4615Z" fill="#002333"/>
<path fill-rule="evenodd" clip-rule="evenodd" d="M11.355 31.1471C9.61833 31.1471 8.21046 32.5549 8.21046 34.2916C8.21046 36.0283 9.61833 37.4361 11.355 37.4361C13.0917 37.4361 14.4995 36.0283 14.4995 34.2916C14.4995 32.5549 13.0917 31.1471 11.355 31.1471ZM6.15918 34.2916C6.15918 31.422 8.48543 29.0957 11.355 29.0957C14.2246 29.0957 16.5509 31.422 16.5509 34.2916C16.5509 37.1612 14.2246 39.4874 11.355 39.4874C8.48543 39.4874 6.15918 37.1612 6.15918 34.2916Z" fill="#FDFDFD"/>
<path fill-rule="evenodd" clip-rule="evenodd" d="M10.3438 21.6846H12.2037V33.5547H10.3438V21.6846Z" fill="#002333"/>
<path d="M11.3552 22.1976C17.3433 22.1976 22.1977 17.3434 22.1977 11.3552C22.1977 5.36705 17.3433 0.512695 11.3552 0.512695C5.36705 0.512695 0.512695 5.36705 0.512695 11.3552C0.512695 17.3434 5.36705 22.1976 11.3552 22.1976Z" fill="#3AE012"/>
<path fill-rule="evenodd" clip-rule="evenodd" d="M11.3553 1.02558C5.65038 1.02558 1.02564 5.65034 1.02564 11.3553C1.02564 17.0601 5.65038 21.6849 11.3553 21.6849C17.0603 21.6849 21.6849 17.0601 21.6849 11.3553C21.6849 5.65034 17.0603 1.02558 11.3553 1.02558ZM0 11.3553C0 5.08395 5.08395 0 11.3553 0C17.6267 0 22.7107 5.08395 22.7107 11.3553C22.7107 17.6267 17.6267 22.7106 11.3553 22.7106C5.08395 22.7106 0 17.6267 0 11.3553Z" fill="#3AE012"/>
<path d="M11.3557 14.6919C13.1981 14.6919 14.6919 13.1981 14.6919 11.3557C14.6919 9.51317 13.1981 8.01953 11.3557 8.01953C9.51317 8.01953 8.01953 9.51317 8.01953 11.3557C8.01953 13.1981 9.51317 14.6919 11.3557 14.6919Z" fill="#F9FFFF"/>
</svg>
