<svg width="40" height="40" viewBox="0 0 40 40" fill="none" xmlns="http://www.w3.org/2000/svg">
<g filter="url(#filter0_d_363_4354)">
<circle cx="20" cy="20" r="9.75" fill="white"/>
</g>
<path fill-rule="evenodd" clip-rule="evenodd" d="M19.8 14C19.2477 14 18.8 13.5523 18.8 13V12.3423C15.3484 12.8789 12.6503 15.6931 12.2908 19.2002H13C13.5523 19.2002 14 19.6479 14 20.2002C14 20.7525 13.5523 21.2002 13 21.2002H12.3424C12.8584 24.5193 15.4807 27.1416 18.7998 27.6576V27C18.7998 26.4477 19.2475 26 19.7998 26C20.3521 26 20.7998 26.4477 20.7998 27V27.7092C24.3069 27.3497 27.1211 24.6516 27.6577 21.2H27C26.4477 21.2 26 20.7523 26 20.2C26 19.6477 26.4477 19.2 27 19.2H27.7092C27.3358 15.5587 24.4413 12.6642 20.8 12.2908V13C20.8 13.5523 20.3523 14 19.8 14ZM20.7998 29.7177C25.4125 29.3432 29.1175 25.758 29.6769 21.2H31C31.5523 21.2 32 20.7523 32 20.2C32 19.6477 31.5523 19.2 31 19.2H29.7177C29.3322 14.4533 25.5467 10.6678 20.8 10.2823V9C20.8 8.44772 20.3523 8 19.8 8C19.2477 8 18.8 8.44772 18.8 9V10.3231C14.242 10.8825 10.6568 14.5875 10.2823 19.2002H9C8.44772 19.2002 8 19.6479 8 20.2002C8 20.7525 8.44772 21.2002 9 21.2002H10.3231C10.8664 25.6254 14.3746 29.1336 18.7998 29.6769V31C18.7998 31.5523 19.2475 32 19.7998 32C20.3521 32 20.7998 31.5523 20.7998 31V29.7177ZM20 22.5C21.3807 22.5 22.5 21.3807 22.5 20C22.5 18.6193 21.3807 17.5 20 17.5C18.6193 17.5 17.5 18.6193 17.5 20C17.5 21.3807 18.6193 22.5 20 22.5Z" fill="#3E4958"/>
<defs>
<filter id="filter0_d_363_4354" x="-4.75" y="-0.75" width="49.5" height="49.5" filterUnits="userSpaceOnUse" color-interpolation-filters="sRGB">
<feFlood flood-opacity="0" result="BackgroundImageFix"/>
<feColorMatrix in="SourceAlpha" type="matrix" values="0 0 0 0 0 0 0 0 0 0 0 0 0 0 0 0 0 0 127 0" result="hardAlpha"/>
<feOffset dy="4"/>
<feGaussianBlur stdDeviation="7.5"/>
<feColorMatrix type="matrix" values="0 0 0 0 0 0 0 0 0 0 0 0 0 0 0 0 0 0 0.15 0"/>
<feBlend mode="normal" in2="BackgroundImageFix" result="effect1_dropShadow_363_4354"/>
<feBlend mode="normal" in="SourceGraphic" in2="effect1_dropShadow_363_4354" result="shape"/>
</filter>
</defs>
</svg>
