<svg width="30" height="30" viewBox="0 0 30 30" fill="none" xmlns="http://www.w3.org/2000/svg">
<path d="M15 0C23.2843 0 30 6.71573 30 15C30 23.2843 23.2843 30 15 30C6.71573 30 0 23.2843 0 15C0 6.71573 6.71573 0 15 0ZM14.877 7.08398C12.0007 7.08416 9.58612 9.41577 9.58594 12.292C9.58594 15.1683 12.5023 22.0834 14.877 22.084C17.2516 22.084 20.1689 15.1685 20.1689 12.292C20.1688 9.41566 17.7533 7.08398 14.877 7.08398ZM15 10C16.3807 10 17.5 11.1193 17.5 12.5C17.5 13.8807 16.3807 15 15 15C13.6193 15 12.5 13.8807 12.5 12.5C12.5 11.1193 13.6193 10 15 10Z" fill="#DEE5E7"/>
</svg>
