<svg width="30" height="30" viewBox="0 0 30 30" fill="none" xmlns="http://www.w3.org/2000/svg">
<rect width="30" height="30" fill="white" fill-opacity="0.01"/>
<path d="M14.25 7C17.7018 7 20.5 9.79822 20.5 13.25C20.5 14.6149 20.0608 15.8764 19.3184 16.9043L23.2695 20.8555C23.6601 21.246 23.6601 21.879 23.2695 22.2695C22.879 22.6601 22.246 22.6601 21.8555 22.2695L17.9043 18.3184C16.8764 19.0608 15.6149 19.5 14.25 19.5C10.7982 19.5 8 16.7018 8 13.25C8 9.79822 10.7982 7 14.25 7ZM14.25 9C11.9028 9 10 10.9028 10 13.25C10 15.5972 11.9028 17.5 14.25 17.5C16.5972 17.5 18.5 15.5972 18.5 13.25C18.5 10.9028 16.5972 9 14.25 9Z" fill="#3AE012"/>
</svg>
